<?xml version="1.0" standalone="no"?>
<!DOCTYPE svg PUBLIC "-//W3C//DTD SVG 20010904//EN"
 "http://www.w3.org/TR/2001/REC-SVG-20010904/DTD/svg10.dtd">
<svg version="1.0" xmlns="http://www.w3.org/2000/svg"
 width="2050pt" height="1080pt" viewBox="0 0 1032.000000 280.000000"
 preserveAspectRatio="xMidYMid meet">

<g transform="translate(0.000000,280.000000) scale(0.100000,-0.100000)"
fill="#000000" stroke="none">
<path d="M4143 2751 c11 -95 96 -243 152 -266 24 -11 48 -39 93 -109 l61 -94
-22 -54 c-40 -99 -23 -311 37 -475 18 -48 13 -70 -32 -136 -73 -107 -67 -205
16 -278 29 -26 29 -29 34 -145 4 -83 12 -137 26 -179 25 -73 17 -92 -57 -129
-63 -32 -119 -98 -165 -191 -20 -42 -64 -107 -96 -145 -75 -87 -78 -114 -20
-160 23 -18 50 -50 61 -72 11 -21 34 -47 50 -57 38 -23 104 -34 144 -23 47 13
42 35 -14 61 -44 21 -53 31 -75 83 -40 93 -50 75 134 244 118 109 208 184 218
184 6 0 5 -19 -4 -52 -17 -67 -17 -117 1 -193 17 -70 19 -199 5 -275 -13 -69
-2 -85 55 -75 22 4 94 11 160 15 162 12 169 13 172 30 5 29 -13 39 -112 60
-55 12 -106 27 -112 32 -25 20 -11 183 37 469 23 129 4 468 -29 539 -33 73
-24 192 15 198 17 2 42 -29 133 -173 116 -180 131 -194 165 -159 30 30 29 33
-97 227 -58 91 -87 145 -84 158 3 10 -1 38 -8 61 -11 39 -16 43 -56 53 l-44
11 5 114 c8 188 8 187 -43 298 -59 126 -65 156 -42 182 14 15 26 18 64 13 58
-7 88 8 97 45 4 15 12 34 19 42 22 27 25 75 7 101 -9 13 -26 50 -37 83 -14 42
-28 65 -45 74 -33 17 -204 12 -245 -8 -43 -22 -72 -71 -91 -157 -9 -41 -29
-100 -44 -130 l-28 -55 -61 93 c-36 55 -61 104 -61 120 0 33 -67 136 -109 167
-17 12 -54 36 -82 53 l-52 30 6 -50z"/>
<path d="M5754 2740 c-58 -41 -68 -72 -60 -186 l7 -96 -32 -29 c-17 -16 -35
-29 -39 -29 -17 0 -51 -103 -56 -172 -3 -40 1 -166 10 -279 l17 -206 -30 -62
c-52 -111 -50 -193 7 -270 24 -33 25 -35 17 -160 -4 -69 -8 -169 -9 -221 -1
-93 -2 -97 -37 -145 -74 -102 -102 -180 -119 -337 -14 -126 -23 -158 -55 -188
-44 -41 -28 -84 40 -110 37 -14 151 -31 225 -33 50 -2 55 0 58 20 3 17 -3 26
-22 33 -49 18 -104 62 -117 92 -29 70 42 289 127 388 24 28 48 69 54 93 6 23
25 83 41 134 16 50 29 113 29 139 0 59 8 50 45 -46 15 -41 40 -100 55 -130 24
-46 29 -72 33 -155 7 -122 31 -203 93 -310 38 -65 48 -92 53 -146 10 -99 34
-117 118 -85 21 8 70 24 108 35 91 26 117 45 113 79 -3 23 -7 27 -33 24 -165
-14 -188 -8 -214 63 -36 95 -62 250 -62 362 1 176 -23 265 -126 470 l-88 175
3 120 c1 67 5 125 8 129 2 5 30 -11 62 -36 31 -24 82 -53 112 -65 35 -13 70
-37 97 -65 45 -48 63 -54 87 -30 24 24 4 54 -76 110 -73 52 -182 161 -232 234
-28 39 -30 50 -37 179 -8 160 -11 174 -56 267 -37 77 -38 83 -21 120 9 19 19
25 43 25 40 0 48 11 63 77 13 59 2 152 -23 190 -22 33 -74 63 -110 63 -17 -1
-48 -14 -71 -30z"/>
<path d="M7465 2608 c-52 -31 -89 -85 -80 -118 4 -14 9 -45 12 -70 3 -25 9
-50 14 -55 5 -7 -16 -28 -55 -57 -117 -85 -192 -205 -247 -395 -17 -59 -37
-115 -43 -123 -23 -27 -56 -106 -56 -132 0 -14 -18 -70 -39 -124 -22 -54 -38
-101 -35 -105 2 -4 13 -5 23 -2 30 8 64 -114 96 -349 6 -46 7 -48 39 -48 30 0
34 -3 38 -31 4 -28 1 -32 -26 -42 -71 -25 -185 -90 -240 -137 -60 -52 -170
-115 -185 -106 -4 3 -38 -4 -75 -15 -88 -26 -102 -51 -66 -115 84 -148 204
-292 234 -281 23 9 38 54 26 77 -15 28 -12 104 5 148 9 21 14 48 13 61 -3 20
10 30 87 72 86 46 294 139 313 139 5 0 12 -34 15 -75 4 -44 17 -99 31 -133 42
-100 79 -241 67 -256 -6 -7 -14 -35 -18 -61 -10 -73 -5 -75 227 -75 202 0 220
3 220 41 0 29 -26 46 -81 53 -47 6 -59 13 -107 62 -40 41 -59 53 -73 49 -15
-5 -22 1 -33 27 -31 75 -47 377 -24 463 10 35 9 55 0 92 -10 37 -10 48 0 54
21 13 17 244 -6 362 l-20 97 24 43 c12 23 34 54 47 68 13 14 44 77 69 140 24
62 48 117 53 122 4 4 30 -10 57 -32 26 -23 52 -37 57 -32 4 4 46 -11 93 -35
66 -34 91 -42 116 -38 18 3 89 17 158 30 109 22 140 24 247 18 136 -8 171 0
194 43 12 22 11 27 -6 39 -10 8 -30 14 -44 15 -14 0 -35 4 -46 9 -19 8 -19 9
2 9 27 1 38 17 17 25 -33 13 -78 5 -110 -19 -31 -24 -39 -25 -156 -24 -68 0
-160 4 -205 7 -97 9 -111 19 -205 152 -33 47 -85 109 -116 138 l-57 54 32 13
c27 11 33 21 42 67 6 29 12 73 14 98 l2 45 57 5 c93 8 91 37 -3 47 -50 5 -55
8 -71 42 -34 72 -140 101 -213 59z"/>
<path d="M9440 2589 c-129 -11 -208 -25 -226 -40 -10 -8 -14 -36 -14 -90 0
-74 2 -80 24 -90 19 -9 25 -22 30 -63 4 -28 11 -76 16 -106 5 -30 14 -84 20
-120 5 -36 15 -92 20 -125 6 -33 13 -79 15 -103 3 -23 11 -56 20 -72 8 -16 15
-39 15 -50 0 -12 6 -36 14 -53 23 -55 36 -88 36 -93 0 -3 -68 -4 -150 -2 -95
2 -150 -1 -151 -7 -3 -21 2 -41 17 -70 8 -16 30 -100 49 -185 23 -104 40 -159
52 -167 12 -10 75 -13 230 -13 l213 0 0 -470 0 -470 40 0 40 0 0 470 0 470
219 0 220 0 20 26 c12 15 21 35 21 45 0 33 60 274 76 304 9 17 15 39 13 49 -4
17 -16 18 -151 17 l-148 -2 7 33 c3 18 12 42 19 53 7 11 16 38 20 60 3 22 11
45 16 52 11 13 30 117 33 178 1 22 8 54 14 70 7 17 10 44 8 61 -3 18 -1 36 4
41 6 6 10 30 11 54 0 24 7 64 15 89 8 24 12 54 8 67 -4 16 -1 23 8 23 31 0 47
35 47 103 0 70 -12 92 -53 102 -109 26 -553 41 -737 24z m-36 -281 c3 -24 10
-74 15 -113 6 -38 12 -90 14 -115 3 -25 10 -76 16 -115 6 -38 13 -92 15 -118
2 -27 9 -54 15 -60 6 -6 11 -18 11 -28 0 -9 11 -52 25 -95 14 -43 25 -80 25
-81 0 -2 -11 -3 -25 -3 -18 0 -25 5 -25 19 0 10 -10 31 -22 47 -13 15 -21 36
-20 46 2 9 -4 30 -12 46 -8 16 -15 48 -14 71 0 24 -6 49 -15 59 -16 18 -28 82
-27 144 0 21 -6 52 -13 71 -8 18 -12 47 -9 65 2 17 -1 46 -7 63 -6 18 -8 54
-5 85 6 48 9 54 29 54 19 0 24 -7 29 -42z m678 0 c2 -46 1 -51 -12 -148 -5
-36 -14 -110 -21 -165 -7 -65 -17 -106 -27 -118 -9 -10 -20 -46 -24 -80 -15
-114 -20 -137 -28 -137 -5 0 -16 -18 -26 -40 -13 -29 -24 -40 -39 -40 l-22 0
25 78 c13 42 29 91 34 107 11 33 29 140 32 195 1 19 6 46 10 59 5 14 10 43 11
65 2 23 9 75 15 116 6 41 14 92 17 113 4 31 9 37 29 37 21 0 24 -5 26 -42z
m-537 22 c-3 -5 -1 -27 4 -47 6 -21 12 -88 15 -150 2 -62 7 -116 9 -120 3 -4
8 -57 11 -116 4 -60 11 -117 16 -127 6 -10 10 -32 10 -48 0 -16 4 -42 9 -58
21 -64 22 -84 6 -84 -9 0 -15 9 -15 24 0 13 -8 34 -19 47 -18 23 -24 47 -39
159 -4 30 -13 64 -19 75 -12 20 -31 167 -37 276 -2 30 -7 63 -13 73 -6 12 -6
33 0 62 9 40 13 44 39 44 17 0 27 -4 23 -10z m127 -262 c2 -150 0 -286 -3
-303 -6 -26 -7 -24 -8 15 -1 25 -5 61 -11 80 -10 36 -21 203 -20 296 0 28 -4
62 -9 76 -13 35 7 108 31 108 16 0 17 -21 20 -272z m131 232 c3 -22 1 -87 -4
-143 -5 -56 -12 -169 -15 -252 -3 -82 -8 -153 -11 -157 -19 -32 -23 22 -23
292 l0 300 24 0 c20 0 24 -6 29 -40z m140 -5 c4 -25 2 -57 -3 -71 -6 -14 -10
-47 -9 -74 1 -26 -1 -52 -5 -58 -7 -11 -17 -123 -16 -171 0 -13 -8 -33 -17
-43 -10 -11 -19 -40 -20 -66 -6 -90 -15 -137 -29 -153 -8 -8 -19 -30 -25 -47
-6 -18 -15 -32 -20 -32 -12 0 -11 17 2 60 20 66 30 145 54 400 13 140 24 265
24 278 1 17 7 22 30 22 26 0 29 -4 34 -45z m-618 -847 c10 -62 25 -173 25
-195 0 -20 -5 -23 -42 -23 l-43 0 -23 103 c-13 56 -26 112 -29 125 -5 21 -2
22 50 22 55 0 56 0 62 -32z m891 15 c-3 -10 -12 -49 -21 -88 -34 -153 -30
-145 -81 -145 l-45 0 5 33 c3 17 10 68 16 112 6 44 13 86 15 93 3 8 24 12 60
12 49 0 56 -2 51 -17z m-722 -10 c5 -15 25 -187 26 -215 0 -5 -22 -8 -48 -8
l-49 0 -12 98 c-7 53 -15 107 -18 120 -5 21 -2 22 45 22 39 0 52 -4 56 -17z
m536 -5 c0 -21 -11 -98 -25 -185 -6 -32 -8 -33 -52 -33 l-45 0 6 88 c4 48 12
102 17 120 10 30 14 32 55 32 39 0 44 -3 44 -22z m-377 -108 c14 0 17 -10 17
-55 l0 -55 -40 0 c-43 0 -42 -2 -54 119 l-5 54 32 -31 c18 -18 41 -32 50 -32z
m203 43 c-2 -10 -7 -48 -11 -85 l-7 -68 -44 0 -44 0 0 49 c0 47 2 50 30 56 17
4 40 20 52 36 25 33 31 36 24 12z"/>
<path d="M3506 2576 c-88 -33 -157 -119 -179 -222 -12 -60 -34 -99 -92 -165
-22 -24 -35 -51 -39 -83 -4 -26 -14 -63 -22 -82 -8 -19 -21 -94 -29 -167 -8
-73 -17 -148 -21 -169 -4 -24 0 -52 11 -82 18 -47 18 -47 -10 -116 -35 -86
-31 -138 14 -209 l32 -50 -10 -143 c-14 -196 -19 -210 -100 -288 -75 -71 -101
-113 -101 -159 0 -59 -72 -228 -101 -239 -14 -5 -11 -58 4 -69 6 -5 31 -15 53
-21 23 -7 54 -24 69 -39 15 -16 39 -36 54 -45 28 -19 87 -24 110 -9 21 14 5
58 -28 76 -16 8 -45 33 -65 57 -65 76 -47 125 96 263 58 55 115 109 129 120
23 19 41 64 68 170 6 22 17 49 26 60 15 19 17 18 69 -37 47 -52 54 -65 66
-127 7 -38 10 -88 6 -110 -9 -58 9 -120 70 -242 46 -90 54 -114 54 -161 0 -76
13 -86 91 -69 39 8 93 10 157 5 84 -6 99 -4 111 10 25 30 -14 66 -96 91 -80
25 -137 57 -159 90 -16 24 -32 154 -42 340 -4 66 -12 129 -18 140 -6 11 -14
35 -18 53 -6 32 -90 162 -148 228 -49 56 -54 136 -14 229 10 22 27 69 38 105
11 36 22 67 24 69 6 7 36 -23 59 -60 13 -19 42 -57 65 -84 23 -27 51 -68 63
-91 19 -40 19 -47 7 -86 -8 -24 -22 -49 -32 -56 -25 -18 -22 -37 8 -61 42 -33
78 -28 104 16 34 58 25 144 -28 256 -23 48 -56 109 -73 135 -131 190 -145 226
-115 312 9 25 16 54 16 66 0 24 -32 120 -59 179 -11 23 -21 56 -23 75 l-3 35
66 6 c52 4 73 11 102 35 45 36 48 69 12 140 -14 27 -25 61 -25 75 0 20 -13 37
-53 68 -63 48 -97 56 -151 37z"/>
<path d="M2464 2284 c-21 -15 -68 -52 -104 -84 -36 -31 -110 -87 -165 -123
-55 -36 -130 -96 -166 -134 -68 -70 -93 -112 -148 -243 -17 -41 -60 -124 -97
-185 -64 -107 -65 -111 -62 -170 3 -45 13 -78 41 -132 20 -40 47 -113 58 -162
13 -57 31 -106 50 -133 36 -54 36 -69 -1 -96 -46 -35 -58 -68 -79 -233 -13
-106 -26 -170 -42 -204 -13 -27 -26 -57 -30 -67 -17 -38 11 -50 157 -64 191
-18 253 -18 261 1 9 26 -26 53 -86 66 -75 15 -87 23 -111 69 -33 65 -27 89 78
304 84 172 98 195 102 170 3 -16 2 -62 -2 -103 -7 -65 -5 -87 18 -170 20 -71
28 -130 33 -228 3 -72 9 -135 13 -139 4 -4 98 -9 208 -12 l200 -5 0 22 c0 47
-17 61 -73 61 -82 1 -130 28 -160 91 -36 76 -40 125 -23 282 9 77 16 179 16
227 0 78 -3 92 -24 117 -58 70 -96 184 -96 289 0 40 3 75 8 77 13 9 191 -82
202 -102 5 -11 10 -28 10 -39 0 -11 8 -30 18 -42 17 -21 21 -22 58 -10 71 23
99 64 74 110 -6 11 -54 53 -108 94 -53 40 -112 89 -129 108 l-33 34 11 89 c15
129 17 135 38 135 32 0 54 36 55 89 1 27 3 51 6 54 3 2 30 18 61 35 50 27 61
30 93 21 19 -5 38 -14 41 -19 12 -20 75 -11 100 15 32 31 32 68 0 109 -25 33
-25 33 -5 51 21 19 26 50 10 60 -5 3 -10 18 -10 32 0 52 -103 113 -190 113
-24 0 -51 -10 -76 -26z"/>
<path d="M8771 2091 c-103 -27 -141 -69 -83 -93 43 -18 350 -17 387 2 43 22
37 41 -19 69 -40 20 -67 25 -150 27 -55 2 -116 -1 -135 -5z"/>
<path d="M944 1716 c-38 -19 -93 -55 -121 -80 -29 -24 -88 -66 -130 -92 -287
-175 -490 -351 -553 -480 -38 -77 -26 -127 62 -271 l51 -84 -59 -51 c-111 -98
-194 -188 -194 -211 1 -21 98 -135 152 -177 42 -34 58 -40 87 -38 50 4 52 32
8 90 -61 80 -63 86 -30 120 15 17 71 65 123 108 52 43 108 92 124 109 17 17
38 31 48 31 33 0 40 -34 29 -143 -6 -56 -13 -154 -17 -218 l-7 -116 24 -6 c47
-13 258 -8 293 7 69 29 55 65 -33 89 -43 12 -62 22 -63 35 -1 9 -2 98 -2 197
l-1 180 -34 65 c-18 36 -48 86 -67 112 -18 26 -31 54 -28 61 3 8 36 40 75 71
l70 58 37 -28 c56 -41 70 -64 78 -123 7 -53 10 -58 113 -160 58 -58 135 -146
169 -196 70 -99 67 -82 46 -227 -13 -90 14 -118 112 -118 65 0 88 27 80 91 -8
56 -60 212 -110 326 -19 43 -38 91 -42 107 l-7 29 41 -23 c78 -44 140 -107
154 -157 11 -39 18 -48 43 -55 137 -37 157 104 32 219 -48 45 -184 146 -310
233 l-78 53 7 151 c3 83 11 156 16 162 6 9 16 9 38 1 25 -10 33 -8 53 11 13
12 34 45 47 72 l23 50 -32 40 c-17 22 -40 59 -50 83 -28 65 -114 127 -175 127
-13 0 -54 -16 -92 -34z"/>
</g>
</svg>
